<?xml version="1.0" standalone="no"?>
<!DOCTYPE svg PUBLIC "-//W3C//DTD SVG 1.1//EN" "http://www.w3.org/Graphics/SVG/1.1/DTD/svg11.dtd" >
<svg xmlns="http://www.w3.org/2000/svg">
<metadata>
Created by FontForge 20120731 at Fri Nov 13 16:42:48 2015
 By Ads
</metadata>
<defs>
<font id="iconfont" horiz-adv-x="1024" >
  <font-face 
    font-family="iconfont"
    font-weight="500"
    font-stretch="normal"
    units-per-em="1024"
    panose-1="2 0 6 3 0 0 0 0 0 0"
    ascent="812"
    descent="-212"
    x-height="792"
    bbox="0 -224 1320.12 800"
    underline-thickness="50"
    underline-position="-100"
    unicode-range="U+0078-E63D"
  />
<missing-glyph horiz-adv-x="374" 
d="M34 0v682h272v-682h-272zM68 34h204v614h-204v-614z" />
    <glyph glyph-name=".notdef" horiz-adv-x="374" 
d="M34 0v682h272v-682h-272zM68 34h204v614h-204v-614z" />
    <glyph glyph-name=".null" horiz-adv-x="0" 
 />
    <glyph glyph-name="nonmarkingreturn" horiz-adv-x="341" 
 />
    <glyph glyph-name="x" unicode="x" horiz-adv-x="1001" 
d="M281 543q-27 -1 -53 -1h-83q-18 0 -36.5 -6t-32.5 -18.5t-23 -32t-9 -45.5v-76h912v41q0 16 -0.5 30t-0.5 18q0 13 -5 29t-17 29.5t-31.5 22.5t-49.5 9h-133v-97h-438v97zM955 310v-52q0 -23 0.5 -52t0.5 -58t-10.5 -47.5t-26 -30t-33 -16t-31.5 -4.5q-14 -1 -29.5 -0.5
t-29.5 0.5h-32l-45 128h-439l-44 -128h-29h-34q-20 0 -45 1q-25 0 -41 9.5t-25.5 23t-13.5 29.5t-4 30v167h911zM163 247q-12 0 -21 -8.5t-9 -21.5t9 -21.5t21 -8.5q13 0 22 8.5t9 21.5t-9 21.5t-22 8.5zM316 123q-8 -26 -14 -48q-5 -19 -10.5 -37t-7.5 -25t-3 -15t1 -14.5
t9.5 -10.5t21.5 -4h37h67h81h80h64h36q23 0 34 12t2 38q-5 13 -9.5 30.5t-9.5 34.5q-5 19 -11 39h-368zM336 498v228q0 11 2.5 23t10 21.5t20.5 15.5t34 6h188q31 0 51.5 -14.5t20.5 -52.5v-227h-327z" />
    <glyph glyph-name="uniE600" unicode="&#xe600;" 
d="M952 50l-3 5l-10 11q-1 2 -3.5 4.5t-12.5 12t-22 19.5q-18 15 -38 30t-37 26l-45 29l-20 10q-6 3 -16 3.5t-18 -2.5q-14 -5 -21 -17l-18 -27l-5 -9q-3 -5 -11 -22l-14 -27q-12 -21 -34 -30.5t-50 2.5q-96 54 -161 116q-94 89 -126 161q-8 12 -2 35t26 32q12 6 32 14
t29 13q7 5 14 9t17 10q1 0 4 3l4 4l2 2q18 17 9 40l-2 8q-14 30 -34 65q-8 13 -18.5 28.5t-20.5 28.5q-15 20 -30.5 34.5t-23.5 18.5l-9 5l-12 6q-6 3 -12 4t-12 0.5t-11.5 -2t-10.5 -3.5q-15 -6 -29.5 -14.5t-20.5 -13.5t-25 -20q-16 -13 -29.5 -28t-24.5 -31.5t-18.5 -33
t-10 -33.5t-0.5 -32q9 -67 82.5 -186t171 -211.5t222.5 -162t196 -78.5q74 -9 158 68q36 34 52 68q7 13 8.5 28t-6.5 30zM952 50z" />
    <glyph glyph-name="uniE601" unicode="&#xe601;" 
d="M363 451q0 11 -5 19.5t-13.5 13.5t-18.5 5q-8 0 -15 -3t-12 -8t-8 -12t-3 -15q0 -15 11 -26t26.5 -11t26.5 11t11 26zM512.5 470q-69.5 0 -119 -49t-49.5 -119t49.5 -119t119 -49t118.5 49t49 119t-49 119t-118.5 49zM512 172q-54 0 -92 38t-38 92t38 92.5t92 38.5
t92.5 -38.5t38.5 -92.5t-38.5 -92t-92.5 -38zM960 301q-256 404 -539 320q-160 -47 -301 -236q-47 -62 -56 -84q-2 -2 37 -58q119 -172 261 -240q266 -128 515 181q42 53 83 117h-4h-12h-12h-6h6h12h12h4zM99 301q249 377 519 281q149 -53 278 -236q12 -17 25 -38l5 -7
l-5 -6q-13 -21 -25.5 -39t-46.5 -59.5t-67 -71t-83 -62.5t-98.5 -47t-111 -11t-122.5 32.5t-130.5 96t-137.5 167.5z" />
    <glyph glyph-name="uniE602" unicode="&#xe602;" 
d="M355 288l342 340q1 2 2.5 4t2.5 4t1 4v6q0 2 -0.5 5t-1.5 5l-2 6q-1 2 -3 4.5t-4 4.5q-6 6 -14 9t-15.5 2t-13.5 -6l-368 -366q-4 -4 -5.5 -9.5t-1.5 -12.5q-1 -13 7 -21l368 -366q4 -4 9.5 -5.5t11.5 -1t11.5 3.5t10.5 8q7 7 9.5 15t1.5 15.5t-6 12.5z" />
    <glyph glyph-name="uniE603" unicode="&#xe603;" 
d="M644 288l-342 -339q-8 -8 -6.5 -20.5t11.5 -22.5q6 -6 14 -9t15.5 -2t12.5 6l369 366q8 8 6 21q1 7 -0.5 12.5t-5.5 9.5l-369 366q-1 1 -3.5 2.5t-4.5 2.5t-5 1h-4q-3 0 -5.5 -0.5t-4.5 -1.5l-6 -2q-2 -1 -4.5 -3t-4.5 -4q-10 -10 -11.5 -22.5t6.5 -20.5z" />
    <glyph glyph-name="uniE604" unicode="&#xe604;" 
d="M900 168l-369 394q-3 4 -8.5 6t-10.5 2q-11 0 -18 -8l-369 -394q-7 -8 -6.5 -18t8 -17t18 -6.5t17.5 8.5l351 375l351 -375q7 -8 17 -8.5t18 6.5t8 17t-7 18z" />
    <glyph glyph-name="uniE605" unicode="&#xe605;" 
d="M105 118h-40v-224q0 -17 11.5 -29t28.5 -12h224v41h-224v224zM105 708h224v41h-224q-17 0 -28.5 -12t-11.5 -29v-224h40v224zM919 -106h-224v-41h224q17 0 28.5 12t11.5 29v224h-40v-224zM919 749h-224v-41h224v-224h40v224q0 11 -5 20.5t-14.5 15t-20.5 5.5zM939 321
h-854q-4 0 -8 -1.5t-6.5 -4t-4 -6.5t-1.5 -8t1.5 -8t4 -6.5t6.5 -4t8 -1.5h854q9 0 14.5 6t5.5 14v4q0 2 -1 4t-2 3.5t-2.5 3t-3 2.5t-3.5 2t-4 1h-4z" />
    <glyph glyph-name="uniE606" unicode="&#xe606;" 
d="M936 -89l-218 214q7 7 13 14q65 76 82.5 173t-14.5 190t-108 158.5t-172.5 83t-189 -14.5t-157.5 -108.5t-82.5 -173.5t14.5 -190t108 -158q98 -85 227 -89t229 70l222 -217q10 -10 23.5 -10t23.5 10t9.5 24t-10.5 24zM255.5 149.5q-94.5 81.5 -104 206.5t71.5 220
q53 63 129 89.5t155 11.5t141 -68q94 -82 103.5 -207t-71.5 -220t-205.5 -104.5t-219 72z" />
    <glyph glyph-name="uniE607" unicode="&#xe607;" 
d="M513 -6h-381q-1 3 -2.5 9t-1.5 24t5.5 34t23 37t46.5 36q3 1 7.5 4t17 14.5t21.5 26.5t15 41.5t5 58.5v224q0 4 0.5 10.5t6 24t14.5 33t29 32.5t46 27q57 22 128 16q-1 2 -2 6.5t-2 15t0 19t7 14.5t17 6v41h-3t-9 -0.5t-12 -2t-13 -6t-12 -11t-8.5 -17.5t-3.5 -25
q-72 -3 -117 -27q-102 -52 -107 -156v-224q-1 -1 0 -9t-2 -23t-7 -29.5t-15 -30t-26 -24.5q-5 -2 -13 -6t-26.5 -20t-31.5 -34t-20.5 -47.5t-1.5 -61.5l9 -21q13 -19 32 -20h387v41zM513 -149q42 0 72 24t30 57h-204q0 -33 30 -57t72 -24zM849 163q-51 29 -51 116v224
q-5 104 -107 156q-9 5 -20.5 9t-22.5 7t-22 5t-20 3t-16.5 2t-11.5 1h-4q0 20 -6 33t-15 18.5t-18 8t-16 2.5h-6v-41q17 1 22 -14.5t2 -30.5l-4 -16q71 6 128 -16q78 -29 94 -110l3 -17v-224q-2 -32 4 -58.5t16 -41.5t20 -26t18 -15l7 -4q84 -45 75 -122l-4 -18h-381v-41
h387q14 0 24.5 11t13 18t3.5 12q6 32 -1 61.5t-21.5 48.5t-30.5 33t-28 20z" />
    <glyph glyph-name="uniE608" unicode="&#xe608;" 
d="M783 234q-5 0 -10 1.5t-9.5 4t-8 6t-6 8t-4 9.5t-1.5 11t2 12t5.5 11t8.5 8.5t11 5.5t12 2q8 0 15 -3t12.5 -8.5t8.5 -12.5t3 -15q0 -17 -11.5 -28.5t-27.5 -11.5zM583 234q-16 0 -27.5 11.5t-11.5 28.5q0 10 5.5 19t14.5 14.5t19 5.5q16 0 27.5 -11.5t11.5 -28
t-11.5 -28t-27.5 -11.5zM961 178q0 95 -74 164.5t-182 75.5q-4 1 -7 1h-6h-7q-115 0 -196 -70.5t-81 -170.5q0 -29 8 -58q23 -79 97.5 -130.5t171.5 -51.5q65 0 122 25l63 -43h1q1 -1 4 -2t5 -0.5t3.5 4t1.5 9.5l-18 66q44 34 69 81t25 100zM261 449q-16 0 -27.5 11.5
t-11.5 28t11.5 28t27.5 11.5q8 0 15 -3.5t12.5 -8.5t8.5 -12.5t3 -15.5q0 -10 -5 -19t-14 -14.5t-20 -5.5zM505.5 528q16.5 0 27.5 -11.5t11 -28t-11 -28t-27.5 -11.5t-27.5 11.5t-11 28t11 28t27.5 11.5zM685 439h5h6h6q-11 66 -55.5 120.5t-113 85.5t-147.5 31
q-87 0 -161 -37t-117 -101.5t-43 -139.5q0 -21 4 -42t10.5 -40.5t16.5 -37.5t23 -34.5t28 -31.5t33 -28l-24 -89q0 -1 -0.5 -3t-0.5 -6.5t2.5 -6.5t7 -3.5t14.5 3.5l88 60q57 -20 119 -20h4h6q-4 15 -6 29.5t-2 29.5q0 108 87 184.5t210 76.5z" />
    <glyph glyph-name="uniE609" unicode="&#xe609;" 
d="M665 231q56 39 88.5 100.5t32.5 132.5q0 118 -83.5 201.5t-201.5 83.5q-78 0 -143.5 -38.5t-103.5 -104t-38 -142.5q0 -74 34.5 -136.5t93.5 -101.5q-110 -48 -178.5 -148.5t-71.5 -224.5h41q3 120 74.5 215t182.5 132q52 -21 109 -21q61 0 117 25q76 -22 136 -73
t95.5 -123.5t37.5 -154.5h41q-2 85 -36 160.5t-93 131.5t-134 86zM501 220q-101 0 -172.5 71.5t-71.5 172.5t71.5 172.5t172.5 71.5q49 0 94.5 -19.5t78 -52t52 -78t19.5 -94.5q0 -101 -71.5 -172.5t-172.5 -71.5z" />
    <glyph glyph-name="uniE60A" unicode="&#xe60a;" 
d="M941 736h-261q-7 0 -12.5 -5.5t-5.5 -13.5t5.5 -13.5t12.5 -5.5h210l-544 -525q-5 -6 -5 -13.5t5 -13.5q2 -2 5 -3.5t5 -1.5h6q3 0 5.5 1.5t4.5 3.5l551 532v-222q0 -3 1 -6t2.5 -5t4 -4t5 -3t5.5 -1q4 0 7.5 1.5t6 4t4 6t1.5 7.5v261q0 8 -5.5 13.5t-13.5 5.5z
M941.5 325q-7.5 0 -13 -5t-5.5 -13v-429h-821v820h429q8 0 13.5 5.5t5.5 13.5q0 3 -1 6t-3 5l-4 4q-2 2 -5 3t-6 1h-392q-31 0 -52.5 -22t-21.5 -53v-746q0 -15 6 -29t16 -24t23.5 -16t28.5 -6h746q21 0 38 10t27 27.5t10 37.5v392q0 8 -5.5 13t-13 5z" />
    <glyph glyph-name="uniE60B" unicode="&#xe60b;" 
d="M726 458l-38 38q-5 6 -12.5 6t-13.5 -6l-150 -150l-145 145q-3 2 -6 3.5t-6.5 1.5t-7 -1.5t-6.5 -3.5l-38 -39q-3 -3 -4.5 -7.5t0 -9.5t4.5 -8l145 -145l-141 -141q-6 -6 -6 -13.5t6 -12.5l38 -38q5 -5 12.5 -5t12.5 5l142 141l148 -148q4 -4 8.5 -5t9 0t8.5 5l38 38
q5 5 5 12.5t-5 13.5l-149 148l151 151q3 3 4.5 8t0 9.5t-4.5 7.5zM513 747q-91 0 -174 -35.5t-143.5 -95.5t-96 -143.5t-35.5 -174.5t35.5 -174.5t96 -143.5t143.5 -95.5t174.5 -35.5t174.5 35.5t143 95.5t96 143.5t36 174.5q0 73 -23 141.5t-64.5 124t-96.5 97t-123.5 64
t-142.5 22.5zM510 -81q-104 0 -192.5 51t-139.5 139.5t-51 192.5t51 192t139.5 139.5t192.5 51.5q34 0 68 -6.5t65 -18t59.5 -28t53.5 -38t46.5 -46t38 -53.5t28 -60t17.5 -64.5t6 -68.5q0 -151 -103 -261q-101 -109 -248 -121q-16 -1 -31 -1z" />
    <glyph glyph-name="uniE60C" unicode="&#xe60c;" 
d="M728 448q-4 0 -8.5 -1.5t-9.5 -4.5l-10 -6l-7 -5l-3 -2l-253 -190l-83 60q-1 1 -3.5 2.5t-10 6.5t-13.5 7.5t-15 4t-14 -2.5q-10 -5 -10 -14t5 -16l5 -7l136 -131l294 280l7 11q2 7 -7 8z" />
    <glyph glyph-name="uniE60D" unicode="&#xe60d;" 
d="M844 752h-61q-8 0 -16 -3t-13.5 -9.5t-5.5 -14.5t5 -16t13.5 -12.5t16.5 -4.5h61q26 0 43 -17t17 -43v-693q0 -27 -17 -43.5t-43 -16.5h-648q-18 0 -35.5 7.5t-29 21.5t-11.5 31v693q0 26 17 43t43 17h76q23 0 23 33q0 4 -0.5 7.5t-1.5 6.5t-3 5.5t-4.5 4t-6 2.5t-7.5 1
h-76q-60 0 -90 -33.5t-30 -88.5v-685q0 -27 8.5 -50.5t24.5 -40.5t40 -26t54 -9h650q15 0 29 2t25.5 6t21.5 10t18 14t14 18t10.5 21.5t6.5 25.5t2 29v685q0 35 -13.5 62.5t-41 43.5t-65.5 16zM256 480q0 -12 9 -21t22 -9h452q8 0 15 4t11 11t4 15.5t-4 15.5t-11 11t-15 4
h-452q-8 0 -15.5 -4t-11.5 -11t-4 -16zM737 345h-450q-8 0 -15.5 -4.5t-11.5 -11.5t-4 -15q0 -12 9 -21.5t22 -9.5h452q8 0 15 4.5t11 11.5t4 15q0 7 -3 12.5t-7 9.5t-10 6.5t-12 2.5zM737 164h-450q-6 0 -12 -2.5t-10 -6.5t-6.5 -9.5t-2.5 -11.5q0 -13 9 -22t22 -9h452
q8 0 15 4t11 11t4 16q-1 13 -10 21.5t-22 8.5zM408 676h210q9 0 17.5 4.5t14.5 11.5t9.5 16.5t3.5 20.5q0 7 -1.5 13.5t-4.5 12.5t-7.5 10.5t-9.5 8t-11 5.5t-12 2h-209q-19 0 -32.5 -15.5t-13.5 -36.5q0 -14 6 -26t17 -19.5t23 -7.5z" />
    <glyph glyph-name="uniE60E" unicode="&#xe60e;" 
d="M515 -146l-82 102q-235 304 -239 445v4q0 88 43.5 161t117 114.5t160.5 41.5q64 0 123.5 -25t102.5 -67.5t69 -101t26 -123.5q0 -49 -33 -123.5t-80.5 -146.5t-94.5 -136.5t-80 -104.5zM515 683q-116 0 -199.5 -82t-83.5 -195q0 -42 31 -110t68 -127.5t86 -126t68 -91
t30 -37.5q12 14 31 38t67.5 91t86 126t67.5 127t30 110q0 113 -83 195.5t-199 81.5zM619 444q0 -29 -14 -53t-38 -38t-52.5 -14t-52.5 14t-38 38t-14 53q0 43 31 73.5t74 30.5q21 0 40.5 -8t33.5 -22t22 -33.5t8 -40.5zM515 510q-28 0 -47.5 -19.5t-19.5 -47t19.5 -47
t47.5 -19.5q18 0 33.5 9t24 24.5t8.5 33.5t-8.5 33t-24 24t-33.5 9z" />
    <glyph glyph-name="uniE60F" unicode="&#xe60f;" 
d="M938 334v121q0 32 -24.5 55.5t-58.5 23.5h-501q-9 0 -15 -6t-6 -14t6 -14t15 -6h501q6 0 12.5 -2t11.5 -5.5t9 -8.5t6 -11t2 -12v-121q0 -27 -6 -35t-36 -12l-515 -70q-132 439 -132 441q-2 7 -7.5 11t-12.5 4h-105q-8 0 -14.5 -6t-6.5 -14t6.5 -14t14.5 -6h89
q107 -358 146 -489q11 -35 31.5 -51t65.5 -16h503q9 0 15 6t6 14t-6 14t-15 6h-503q-30 0 -39.5 7t-16.5 31q-1 0 -3.5 9.5t-4.5 14.5l510 69q20 3 33.5 8t22.5 12t14 17t6.5 21.5t1.5 27.5zM375 -2q-18 0 -30 -11.5t-12 -28t12 -28.5t30 -12q8 0 16 3.5t13.5 8.5t8.5 12.5
t3 15.5q0 27 -26 37q-8 3 -15 3zM834 -2q-18 0 -30 -11.5t-12 -28.5q0 -11 5.5 -20t15 -14.5t21.5 -5.5q17 0 29 12t12 28q0 27 -26 37q-8 3 -15 3zM834 -2z" />
    <glyph glyph-name="uniE610" unicode="&#xe610;" 
d="M541 300l370 370q3 4 4.5 9t0 10.5t-4.5 9.5q-6 6 -14.5 6t-14.5 -6l-370 -370l-370 370q-2 3 -6 4.5t-8 1.5t-8 -1.5t-6 -4.5q-6 -6 -6 -14.5t6 -14.5l369 -370l-369 -369q-6 -6 -6 -14.5t6 -14.5t14.5 -6t14.5 6l369 369l370 -369q6 -6 14.5 -6t14.5 6q3 4 4.5 9
t0 10.5t-4.5 9.5z" />
    <glyph glyph-name="uniE611" unicode="&#xe611;" 
d="M741 475l-38 38q-5 5 -12.5 5t-12.5 -5l-151 -151l-145 145q-5 6 -12.5 6t-12.5 -6l-38 -38q-4 -3 -5 -8t0 -9.5t5 -7.5l145 -145l-142 -142q-3 -3 -4.5 -7.5t0 -9.5t4.5 -8l38 -38q6 -5 13 -5t13 5l141 141l149 -148q3 -4 8 -5t9.5 0t7.5 5l39 38q5 5 5 12.5t-5 12.5
l-149 149l150 150q4 4 5 8.5t0 9t-5 8.5z" />
    <glyph glyph-name="uniE612" unicode="&#xe612;" 
d="M95 324h833v-72h-833v72zM476 704h71v-832h-71v832z" />
    <glyph glyph-name="uniE613" unicode="&#xe613;" 
d="M95 324h833v-72h-833v72z" />
    <glyph glyph-name="uniE614" unicode="&#xe614;" 
d="M913 469q-33 78 -93.5 138.5t-138.5 93.5q-81 34 -169 34t-169 -34q-39 -17 -74 -40.5t-64.5 -53t-53 -64.5t-40.5 -74q-5 -11 -9 -23t-7.5 -23.5t-6 -23.5t-5 -24.5t-3.5 -24.5t-2 -24.5t-1 -25.5q0 -88 34 -169q33 -78 93.5 -138.5t138.5 -93.5q40 -17 82.5 -25.5
t86.5 -8.5q88 0 169 34q78 33 138.5 93.5t93.5 138.5q34 81 34 169t-34 169zM783 29q-36 -36 -79.5 -61.5t-92 -38.5t-99.5 -13q-77 0 -147 29t-124.5 83.5t-83.5 124.5t-29 147t29 147t83.5 124.5t124.5 83.5t147 29t147 -29t124.5 -83.5t83.5 -124.5t29 -147
q0 -26 -3.5 -51t-10 -49t-16 -47t-22 -44.5t-28 -41.5t-33.5 -38zM538 587q0 4 -1.5 8t-4 7t-5.5 5.5t-7 3.5t-8 1q-11 0 -18.5 -7.5t-7.5 -17.5v-275q0 -1 0.5 -2.5t0.5 -3.5l-1 -6q0 -7 3.5 -13t9.5 -9.5t13 -3.5h287q10 0 17.5 7.5t7.5 18.5t-7.5 18.5t-17.5 7.5h-261
v261z" />
    <glyph glyph-name="uniE615" unicode="&#xe615;" 
d="M858 705l-7 12h-667l-7 -10q-60 -77 -94 -145.5t-40 -119t-1.5 -84t17.5 -59.5q22 -45 63 -71.5t88 -26.5h6q93 3 158 70q58 -66 145 -66q90 0 148 70q88 -72 167 -72q67 0 114 55q24 27 32 66.5t3 78.5t-19.5 84t-29.5 79t-34 69t-27.5 48.5t-14.5 21.5zM908 291
q-16 -18 -34 -27t-40 -9q-19 0 -40 6.5t-37 15t-32.5 20.5t-25 19t-15.5 13v178v1l1 1q0 11 -8 18.5t-18.5 7.5t-18.5 -7.5t-8 -18.5v-194q-42 -58 -113 -58q-32 0 -59.5 14t-38.5 26t-19 24v188q0 11 -8 18.5t-18 7.5q-3 0 -5.5 -0.5t-4.5 -1.5l-4 -2q-2 -1 -4 -3l-2 -2
t-3 -4l-2 -4q-1 -2 -1.5 -4.5t-0.5 -4.5v-187q-10 -13 -23 -25.5t-45 -27.5t-67 -16h-4q-29 0 -58 17.5t-46 51.5q-4 8 -7 17.5t-5.5 23t-3 27.5t2 32.5t7.5 37.5t14 42.5t22 48.5t32 54t42 60h612q19 -30 37.5 -64.5t37 -80t28.5 -86.5t7 -80t-24 -63zM861 171
q-11 0 -19 -7.5t-8 -18.5v0v-190q0 -22 -15.5 -37t-36.5 -15h-226h-314q-22 0 -37.5 15t-15.5 37v190q0 7 -3.5 13t-9.5 9.5t-13 3.5q-11 0 -19 -7.5t-8 -18.5v-195q0 -42 29.5 -71t70.5 -29h551q14 0 27 3.5t23.5 10t20 15.5t16 20t10 24t3.5 27v195q0 5 -2 10t-5.5 8.5
t-8.5 5.5t-10 2z" />
    <glyph glyph-name="uniE616" unicode="&#xe616;" horiz-adv-x="1025" 
d="M902 512q2 3 3.5 6t2 6t0.5 6t-1 6t-2.5 6t-4.5 5q-5 5 -11.5 6t-12.5 -0.5t-11 -6.5l-353 -378l-352 377q-7 7 -17.5 7.5t-18 -6t-8 -17t6.5 -17.5l371 -396q7 -8 17 -8q5 -1 10.5 1t8.5 7zM902 512z" />
    <glyph glyph-name="uniE617" unicode="&#xe617;" 
d="M768 416h-512l256 -320z" />
    <glyph glyph-name="uniE618" unicode="&#xe618;" 
d="M533 -9v41h370v-41h-370zM533 197h370v-41h-370v41zM533 444h370v-41h-370v41zM533 629h370v-41h-370v41zM361 -50h-192q-20 0 -34 14t-14 34v192q0 20 14 34t34 14h192q20 0 34 -14t14 -34v-192q0 -20 -14 -34t-34 -14zM368 190q0 7 -7 7h-192q-7 0 -7 -7v-192
q0 -7 7 -7h192q7 0 7 7v192zM361 362h-192q-20 0 -34 14t-14 34v192q0 20 14 34t34 14h192q10 0 19 -4t15 -10.5t10 -15t4 -18.5v-192q0 -8 -2.5 -15.5t-7 -13t-10 -10t-13 -7t-15.5 -2.5zM368 602q0 7 -7 7h-192q-7 0 -7 -7v-192q0 -3 2 -5t5 -2h192q7 0 7 7v192zM368 602z
" />
    <glyph glyph-name="uniE619" unicode="&#xe619;" 
d="M409 650h-197q-10 0 -19 -4t-16 -10.5t-10.5 -15.5t-3.5 -19v-197q0 -14 6.5 -25t18 -18t24.5 -7h197q13 0 24.5 7t18 18t6.5 25v197q0 13 -6.5 24.5t-18 18t-24.5 6.5zM416 404q0 -7 -7 -7h-197q-7 0 -7 7v197q0 7 7 7h197q3 0 5 -2t2 -5v-197zM409 246h-197
q-14 0 -25 -7t-17.5 -18t-6.5 -25v-197q0 -8 2.5 -15.5t7 -13.5t10.5 -10.5t13.5 -7t15.5 -2.5h197q13 0 24.5 6.5t18 18t6.5 24.5v197q0 21 -14.5 35.5t-34.5 14.5zM416 -1q0 -7 -7 -7h-197q-7 0 -7 7v197q0 7 7 7h197q3 0 5 -2t2 -5v-197zM812 650h-197q-10 0 -19 -4
t-15.5 -10.5t-10.5 -15.5t-4 -19v-197q0 -14 6.5 -25t18 -18t24.5 -7h197q21 0 35 14.5t14 35.5v197q0 20 -14 34.5t-35 14.5zM819 404q0 -7 -7 -7h-197q-6 1 -7 7v197q0 2 1 3.5t2.5 2.5t3.5 1h197q7 0 7 -7v-197zM812 246h-197q-13 0 -24.5 -7t-18 -18t-6.5 -25v-197
q0 -20 14.5 -34.5t34.5 -14.5h197q21 0 35 14.5t14 34.5v197q0 21 -14 35.5t-35 14.5zM819 -1q0 -7 -7 -7h-197q-6 2 -7 7v197q0 2 1 4t2.5 2.5t3.5 0.5h197q7 0 7 -7v-197z" />
    <glyph glyph-name="uniE61A" unicode="&#xe61a;" 
d="M960 564l-60 61l-530 -530l-246 246l-60 -60l298 -297l8 -9l9 9z" />
    <glyph glyph-name="uniE61B" unicode="&#xe61b;" 
d="M877 638l-337 109q-28 9 -56 0l-337 -109q-22 -7 -35 -25t-13 -41v-239q0 -104 47 -197t131 -155l194 -143q4 -3 9 -5.5t10.5 -4t10.5 -2.5t11 -1q23 0 41 13l194 143q84 61 131 154.5t47 197.5v239q0 23 -13 41t-35 25zM879 333q0 -93 -42 -176.5t-117 -138.5l-194 -143
q-14 -9 -28 0l-194 143q-75 55 -117 138.5t-42 176.5v239q0 8 4.5 14t11.5 8l337 109q7 2 14 2t14 -2l337 -109q7 -2 11.5 -8t4.5 -14v-239zM719 491h-414q-6 0 -11 -3t-8.5 -8.5t-3.5 -11.5q0 -4 1.5 -7.5t3.5 -6t5 -5t6.5 -3.5t6.5 -1h184v-343q0 -9 6.5 -15.5t16.5 -6.5
q6 0 11.5 3t8.5 8t3 11v343h184q4 0 8.5 2t7.5 5t5 7t2 9q0 9 -7 16t-16 7z" />
    <glyph glyph-name="uniE61C" unicode="&#xe61c;" 
d="M512 -148q-45 0 -89 9t-85 26q-81 34 -143 96t-96 143q-17 41 -26 85t-9 89q0 91 35 174q34 81 96 143t143 96q83 35 174 35q18 0 36 -1.5t35.5 -4t35 -7t34.5 -10t33 -12.5t31.5 -15t30 -17t28.5 -19t27.5 -21.5t25.5 -23.5q62 -62 96 -143q35 -83 35 -174q0 -45 -9 -89
t-26 -85q-34 -81 -96 -143t-143 -96q-41 -17 -85 -26t-89 -9zM512 717q-113 0 -209 -56t-152 -152t-56 -209t56 -209t152 -152t209 -56t209 56t152 152t56 209t-56 209t-152 152t-209 56zM700 247q-10 11 -20.5 0.5t-0.5 -21.5q70 -69 70 -167q0 -6 4 -10.5t10 -4.5
q4 0 7.5 2t5.5 5.5t2 7.5q0 110 -78 188zM512 650q-36 0 -69 -14t-56.5 -37.5t-37.5 -56.5t-14 -69q0 -34 12.5 -65.5t34.5 -55.5t52 -38q-63 -20 -110 -67q-78 -78 -78 -188q0 -6 4.5 -10.5t10.5 -4.5t10 4.5t4 10.5q0 98 70 167q66 67 160 70q4 -1 7 -1q48 0 89 24
t64.5 65t23.5 89t-23.5 89t-64.5 64.5t-89 23.5zM514 325h-2h-7q-29 2 -55 14t-45 31.5t-30 46.5t-11 56q0 61 43.5 104.5t104.5 43.5t104.5 -43.5t43.5 -104.5t-42.5 -104t-103.5 -44z" />
    <glyph glyph-name="uniE61D" unicode="&#xe61d;" 
d="M935 378q-15 22 -33 44l-1 1v0l-11 13v1q-23 26 -42 44q-33 31 -53 31h-155h-7q-3 0 -6 -1v69q0 16 -8 30t-22 22t-30 8h-456q-16 0 -30 -8t-22 -22t-8 -30v-474q0 -10 3 -19t8.5 -16.5t13 -13t16.5 -9t19 -3.5h70q5 -25 21.5 -46t40.5 -33t50 -12q41 0 72.5 26t40.5 65
h161q20 0 36 13q16 -13 37 -13h15q5 -25 21.5 -46t40 -33t50.5 -12q41 0 72.5 26t40.5 65h33q25 0 42.5 18t17.5 43v191q0 8 -3.5 19.5t-15.5 31.5q-8 14 -19 30zM293 2q-28 0 -47.5 19.5t-19.5 47.5t19.5 48t47.5 20t48 -20t20 -48q0 -40 -36 -59q-15 -8 -32 -8zM579 452
v-346q0 -3 -1 -5t-2.5 -4t-4 -3t-4.5 -1h-161q-8 39 -38.5 64.5t-70.5 26.5h-1v0v0v0v0h-1v0v0v0v0h-1v0v0v0v0v0v0h-1v0v0v0h-1v0v0h-1v0v0v0v0v0h-1v0v0v0q-40 -1 -70.5 -26.5t-38.5 -64.5h-70q-5 0 -9 3.5t-4 9.5v474q2 11 13 12h456q2 0 4.5 -1t4 -2.5t2.5 -4t1 -4.5
v-128zM767 2q-28 0 -47.5 19.5t-19.5 47.5q0 19 9 34.5t24.5 24.5t33.5 9q28 0 48 -20t20 -48q0 -40 -36 -59q-15 -8 -32 -8zM926 106q0 -5 -4 -9t-9 -4h-33q-8 37 -37 62.5t-67 28.5v0h-1v0h-1v0v0v0h-1v0h-1v0v0v0v0v0v0h-1v0v0v0v0v0v0v0v0h-1v0v0v0v0h-1v0v0v0v0h-1v0v0
v0v0v0h-1v0v0v0h-1v0v0v0v0v0h-1v0v0v0v0h-1v0v0v0v0v0v0h-1v0h-1v0v0v0h-1h-1v0h-1v0v0v0v0v0v0v0v0h-1q-25 -2 -47 -14.5t-36.5 -32.5t-19.5 -44h-15q-3 0 -5.5 1t-4 3t-2.5 4t-1 5v346q0 5 3.5 9t9.5 4h152q9 -5 27 -22l4 -4h-74q-25 0 -42.5 -17.5t-17.5 -42.5v-73
q0 -16 8 -30t22 -22t30 -8h177v-140zM926 294h-177q-5 0 -9 3.5t-4 8.5v73q0 2 1 4t2 3.5t2.5 3t3.5 2t4 0.5h116q8 -11 16 -21l1 -1q7 -9 13 -18l12 -18l3 2l-3 -2l7 4l-7 -4l3 -5q4 -7 7 -12.5t4.5 -8.5t2.5 -6t2 -4v-1v-3z" />
    <glyph glyph-name="uniE61E" unicode="&#xe61e;" 
d="M950 438q0 11 -3.5 22t-10 20t-15.5 15.5t-20 10t-23 3.5h-56q38 37 38 90q0 52 -36.5 88.5t-88.5 36.5q-88 0 -145 -136q-24 11 -53 11t-53 -11q-25 59 -61 97.5t-84 38.5q-44 0 -77.5 -27t-44.5 -68q6 -1 11.5 -2.5t11.5 -3t12 -3.5q7 30 31.5 49.5t55.5 19.5
q36 0 65 -35t50 -88q-6 -8 -7 -17l6 1q-2 -1 -5 -3h-1v-1v-1q0 -17 17 -31h-1q-9 -3 -22 -3t-31 3t-43.5 13t-54.5 26q-52 29 -99 39.5t-75 7t-52.5 -15t-30.5 -17.5l-11 -11q-4 -5 -3.5 -12.5t6.5 -12t13.5 -4t11.5 6.5q2 1 4.5 4t12 9t21 10.5t31 6.5t40.5 -1t51 -13
t62 -28q86 -47 145 -47q10 0 22 2q1 -1 1 -2l1 -1h56v-144h-360v108q0 15 10.5 25.5t25.5 10.5h119q-21 9 -37 18q-17 10 -35 17h-47q-15 0 -28 -5.5t-23 -15t-15.5 -23t-5.5 -27.5v-143h54v-322q0 -10 2.5 -19.5t7 -17t11.5 -14.5t15 -11.5t17 -7t19 -2.5h576q29 0 50 21
t21 51v321h55zM519 -63h-270q-15 0 -25.5 10.5t-10.5 24.5v323h306v-358zM627 545q0 11 -8 21q50 123 115 123q37 0 63.5 -26.5t26.5 -63.5t-26.5 -63t-63.5 -26h-130q23 15 23 35v0zM537 527q-6 0 -11 0.5t-10 1.5q-4 5 -7 7q-9 4 -17 -1q-9 5 -9 10q0 7 15.5 12.5
t38.5 5.5q14 0 26.5 -2.5t20 -6.5t7.5 -9q0 -3 -3 -5.5t-8 -5t-11.5 -4t-15 -2.5t-16.5 -1v0zM860 -28q0 -14 -10.5 -24.5t-25.5 -10.5h-269v358h305v-323zM914 330h-359v143h323q15 0 25.5 -10t10.5 -25v-108v0zM914 330z" />
    <glyph glyph-name="uniE61F" unicode="&#xe61f;" 
d="M512 -75q-79 0 -151 13t-124.5 35t-83 52.5t-31.5 64.5q-31 8 -58 16q-1 -4 -1.5 -8t-0.5 -8q0 -46 36 -87.5t96 -71.5t143.5 -48t174.5 -18t174.5 18t143.5 48t96 71.5t36 87.5q0 11 -2 21q-28 -9 -58 -17v-4q0 -19 -10.5 -37.5t-29.5 -35t-46 -30.5t-60.5 -25.5
t-72 -19.5t-82.5 -12.5t-89 -4.5zM512 135q-79 0 -151 13t-124.5 35t-83 52.5t-31.5 64.5q-31 7 -58 16q-1 -1 -1 -3v-3q0 -2 -0.5 -3.5t-0.5 -2.5v-4q0 -61 60.5 -113t164 -82t225.5 -30t225.5 30t164 82t60.5 113q0 11 -2 21l-20 -6l-18 -6l-20 -6v-3q0 -22 -14 -43.5
t-39.5 -39.5t-61.5 -33.5t-78.5 -26t-93 -16.5t-103.5 -6zM122 510q0 33 31 63.5t83 53t124.5 35.5t151.5 13q106 0 195.5 -22t142 -60t52.5 -83q0 -27 -20 -52t-56 -45.5t-84 -35.5t-107.5 -23.5t-122.5 -8.5q-32 0 -63 2t-60 6t-56 10t-51 13.5t-45.5 16.5t-39 19.5
t-31.5 22t-23.5 23.5t-15 25t-5.5 27zM62 510q0 -61 60.5 -113t164 -82t225.5 -30q73 0 142 11.5t124 32t96.5 48.5t64.5 62t23 70.5t-23 71t-64.5 62t-96.5 48.5t-124 32.5t-142 11.5q-122 0 -225.5 -30.5t-164 -82t-60.5 -112.5z" />
    <glyph glyph-name="uniE620" unicode="&#xe620;" 
d="M242 282v-337q9 -20 29 -25h282v362h-311zM899 282v-337q-1 -2 -3 -5.5t-9.5 -10.5t-16.5 -9h-282v362h311zM956 437q-2 10 -8 17t-12 9l-6 2h-94q20 15 35 40q11 17 14.5 37.5t0 42t-13.5 40.5q-6 12 -14 22t-17.5 18t-20.5 13.5t-23.5 9t-25.5 4.5q-16 1 -31.5 -3
t-30.5 -13q-8 -5 -15.5 -11.5t-15 -14t-14.5 -16.5q-27 -35 -45 -80l-3 -6q-24 10 -49 9h-1q-13 0 -25.5 -2t-23.5 -7q-3 9 -8 20.5t-18 34.5t-27.5 40t-37.5 31t-48 14q-32 0 -57.5 -10.5t-40 -27.5t-21.5 -30t-11 -26l35 -12l11 24q26 45 79 46q23 0 43.5 -14.5t35 -38
t22 -39t12.5 -30.5q-14 -11 -14 -20t12 -19q-27 -6 -55 1.5t-50.5 21t-61.5 32t-80 28.5q-29 4 -52.5 4t-41.5 -3.5t-31 -9t-22 -11.5t-14.5 -11.5t-7.5 -8.5l-2 -4q1 -1 -0.5 -8t6 -13.5t22.5 -2.5q58 54 167 19q11 -3 34.5 -14t52.5 -24.5t52 -21.5h-189q-1 0 -2.5 -0.5
t-5.5 -3t-7.5 -5t-6.5 -8t-4 -11.5v-115h368v143h-15q1 1 2 1t1 1q4 -1 8.5 -1.5t8.5 -0.5h9q11 0 21 1v-1v-3v-15v-125h368v24q-1 24 -1 49.5t1 41.5zM644 534q2 5 4 9q5 13 13 28.5t24 39t38 38t46 13.5q30 -3 48.5 -18t27.5 -33q11 -22 11 -47t-11 -43
q-8 -13 -17.5 -22.5t-17.5 -13.5t-15.5 -6.5t-10.5 -2.5h-6l-148 1q32 15 32 33q0 10 -18 24zM567 488q-5 0 -9 0.5t-8 0.5v3l-2 3q-7 16 -27 6l-2 4q-1 2 -1 5q0 20 49 20q15 0 27 -2.5t18.5 -7.5t6.5 -10q0 -9 -13.5 -15.5t-38.5 -6.5z" />
    <glyph glyph-name="uniE621" unicode="&#xe621;" 
d="M511 747q-72 0 -140 -22.5t-123 -64t-96 -96t-63.5 -122.5t-22.5 -141q0 -90 35.5 -172.5t95 -142t142 -95t173 -35.5t173 35.5t142 95t94.5 142t35 173t-35 173t-94.5 142t-142 95t-173.5 35.5zM511.5 -99q-108.5 0 -201 54t-146 146t-53.5 201q0 81 31.5 155
t85.5 127.5t128 85.5t155.5 32t155.5 -32t127.5 -85.5t85.5 -127.5t32 -155q0 -109 -54 -201t-146 -146t-200.5 -54zM712 324h-364l133 141q1 2 2.5 4.5t2.5 4.5t1 4v6q0 2 -1 4.5t-2.5 4.5t-2.5 4q-7 6 -16 6t-16 -6l-181 -196l178 -198q7 -6 16 -6q4 0 8.5 1.5t7.5 4.5
q6 7 6 16t-6 16l-131 144h365q6 0 11 3t8 8t3 11q0 10 -6.5 16.5t-15.5 6.5z" />
    <glyph glyph-name="uniE622" unicode="&#xe622;" 
d="M512 741q-90 0 -171.5 -35t-140.5 -94t-94 -140.5t-35 -171.5t35 -171.5t94 -140.5t140.5 -94t171.5 -35q72 0 139 22.5t121.5 63t95 95t63 121.5t22.5 139q0 90 -35 171.5t-94 140.5t-140.5 94t-171.5 35zM737 165h-324l52 -88l-74 -42l-80 128q-24 40 -24 47q0 1 1 2v2
q0 3 1 4q3 16 15 26.5t28 10.5h11q5 1 9 0h385v-90zM736 386q0 -3 -1 -4q0 -5 -2 -9t-5 -7l-4 -8q-3 -3 -7 -5.5t-7.5 -4t-8 -2.5t-9.5 -1h-11q-5 -1 -9 0l-385 3v90l324 -3l-52 88l74 42q104 -158 104 -175v-2z" />
    <glyph glyph-name="uniE623" unicode="&#xe623;" 
d="M747 300q0 -39 27.5 -66.5t66.5 -27.5q19 0 36 7.5t30 20t20 30t7 36.5q0 25 -12.5 47t-34 34.5t-46.5 12.5q-39 0 -66.5 -27.5t-27.5 -66.5zM90 300q0 -8 1 -15.5t3.5 -14.5t5.5 -13.5t7.5 -12t9.5 -11t11 -9.5t12.5 -7.5t13.5 -5.5t14.5 -3.5t14.5 -1.5q39 0 66.5 27.5
t27.5 66.5t-27.5 66.5t-66.5 27.5q-25 0 -46.5 -12.5t-34 -34.5t-12.5 -47zM418 300q0 -25 12.5 -47t34 -34.5t47 -12.5t47.5 12.5t34.5 34.5t12.5 47q0 52 -44 80q-24 14 -50 14t-47.5 -12.5t-34 -34.5t-12.5 -47z" />
    <glyph glyph-name="uniE624" unicode="&#xe624;" 
d="M853 735h-686q-28 0 -52 -14t-37.5 -37.5t-13.5 -51.5v-686q0 -42 30 -72.5t73 -30.5h686q42 0 72.5 30.5t30.5 72.5v686q0 21 -8 40t-22 33t-33 22t-40 8zM831 257h-289v-289h-64v289h-289v64h289v289h64v-289h289v-64z" />
    <glyph glyph-name="uniE625" unicode="&#xe625;" 
d="M852 737h-686q-21 0 -40 -8t-32.5 -22t-22 -33t-8.5 -40v-686q0 -42 30.5 -72.5t72.5 -30.5h686q43 0 73 30.5t30 72.5v686q0 28 -13.5 52t-37.5 37.5t-52 13.5zM830 259h-641v64h641v-64z" />
    <glyph glyph-name="uniE626" unicode="&#xe626;" 
d="M863 508q-5 0 -10 -3t-7.5 -7.5t-2.5 -10.5v-565q0 -18 -12.5 -30t-29.5 -12h-578q-6 0 -11.5 1.5t-10 4t-8.5 6.5t-6.5 8.5t-4 10t-1.5 11.5v565q0 6 -2.5 10.5t-7.5 7.5t-10 3q-16 0 -20 -16h-1v-570q0 -12 3 -22.5t8 -20t13 -17t17 -13t19.5 -8.5t22.5 -3h578
q35 0 59 24.5t24 59.5v565q0 6 -3 10.5t-7.5 7.5t-10.5 3v0zM367 5v461q0 2 -0.5 4.5t-1.5 4.5t-2.5 4t-3 3.5t-3.5 2.5t-4.5 1.5t-4.5 0.5q-3 0 -5 -0.5t-3.5 -1.5t-3.5 -2t-3 -2.5t-2.5 -3t-1.5 -3.5l-2 -4v-4v-461q0 -4 1.5 -8t4.5 -6.5t6.5 -4t8.5 -1.5q20 0 20 20z
M698 5v461q0 9 -6 15t-15 6q-5 0 -10 -3t-7.5 -7.5t-2.5 -10.5v-461q0 -8 6 -14t14 -6q17 0 20 16q1 3 1 4zM926 654h-239l-76 77q-3 4 -7 5.5t-9 1.5v0h-166q-10 0 -16 -7l-76 -77h-239q-8 0 -14 -6t-6 -15q0 -5 2.5 -10t7.5 -8t10 -3h249h1q2 0 4 0.5t4 1.5l4 2q2 1 4 3
l76 77h144l76 -77q7 -7 16 -7h1h249q8 0 14 6.5t6 15t-6 14.5t-14 6v0zM533 5v461q0 9 -6.5 15t-14.5 6q-4 0 -8 -1.5t-6.5 -4.5t-4.5 -7t-2 -8v-461q0 -8 6 -14t15 -6q21 0 21 20zM533 5z" />
    <glyph glyph-name="uniE627" unicode="&#xe627;" 
d="M857 -134h-690q-10 0 -20 3t-18.5 8t-15.5 12t-12 15t-7.5 18t-2.5 21v690q0 31 22.5 53.5t53.5 22.5h460q7 0 13 -3.5t9.5 -9t3.5 -12.5t-3.5 -13t-9.5 -9.5t-13 -3.5h-434q-21 0 -36 -15t-15 -36v-639q0 -21 15 -36t36 -15h639q21 0 36 15t15 36v460q0 11 7.5 18.5
t18 7.5t18 -7.5t7.5 -18.5v-485q0 -13 -4 -24.5t-11 -21t-16.5 -16.5t-21 -11t-24.5 -4v0zM440 205q-7 -8 -18 -8t-18.5 7.5t-7.5 18t8 18.5l459 461q5 5 11.5 7t13 0t11.5 -7q8 -7 8 -17.5t-8 -18.5zM440 205z" />
    <glyph glyph-name="uniE628" unicode="&#xe628;" 
d="M511 789q-102 0 -194.5 -39.5t-159.5 -106.5t-106.5 -159.5t-39.5 -194.5t39.5 -194.5t106.5 -159.5t159.5 -106.5t194.5 -39.5t194.5 39.5t159.5 106.5t106.5 159.5t39.5 194.5q0 68 -17.5 133t-50 119.5t-78.5 101t-101 78.5t-120 50t-133 18zM410 -24
q-33 0 -51.5 14.5t-18.5 43.5q0 50 47 154l79 185q4 10 2.5 16t-5 9.5t-8.5 3.5q-14 0 -33 -14.5t-34 -31.5t-29 -31.5t-21 -14.5q-2 0 -4.5 1t-4.5 2.5t-3 3t-2 3.5t-1 4q0 17 65 77q80 70 170 70q20 0 36 -6t28 -20t11.5 -40.5t-15.5 -62.5l-81 -205q-20 -45 -20 -59
q0 -3 1 -5.5t2.5 -4.5t4.5 -3.5t6 -1.5q7 0 16 5t18.5 13t19 17.5t18.5 19t17 17.5t14 12.5t9 4.5t6.5 -1.5t5.5 -5.5t2 -8q0 -8 -10.5 -23t-28 -33t-42.5 -36.5t-51.5 -34t-57 -25t-57.5 -9.5zM605 509q-17 0 -31.5 5t-24.5 14.5t-15.5 23t-5.5 29.5q0 34 27.5 59t65.5 25
q9 0 18 -2t17 -5t14.5 -7.5t12 -11t9 -13.5t5.5 -15.5t2 -17.5q0 -14 -5 -27t-13.5 -23.5t-20.5 -18t-26 -11.5t-29 -4z" />
    <glyph glyph-name="uniE629" unicode="&#xe629;" 
d="M241 251h-190q-8 0 -15 4t-11 10.5t-4 14.5v1q0 5 1.5 9.5t4.5 8t6.5 6.5t8 4.5t9.5 1.5h190q13 0 21.5 -9t8.5 -21v-1q0 -2 -0.5 -4.5t-1 -4.5t-1.5 -4t-2.5 -4t-3 -3.5t-3.5 -3t-4 -2.5t-4.5 -2t-4.5 -1h-5zM982 251h-190q-12 0 -20.5 8.5t-8.5 20.5v1q0 12 8.5 21
t20.5 9h190q6 0 11.5 -2.5t9.5 -6.5t6.5 -9.5t2.5 -11.5v-1q0 -8 -4 -14.5t-11 -10.5t-15 -4zM939 492l-165 -93q-11 -6 -23 -3t-18 14v1q-6 10 -2.5 22t13.5 18l166 94q4 2 8.5 3t9 0.5t9 -2.5t8 -5t5.5 -7l1 -1q6 -11 2.5 -23t-14.5 -18zM778 674l-98 -163q-6 -10 -18 -13
t-23 3v1q-11 6 -14 18t4 22l97 163q5 7 12 11t14.5 4t14.5 -4l1 -1q11 -6 14 -18t-4 -23zM547 749l-1 -190q0 -13 -9 -21.5t-21 -8.5h-1q-12 0 -21 9t-9 21l1 190q0 12 9 21t21 9h1q12 0 21 -9t9 -21zM312 706l96 -165q3 -5 3.5 -11t-1 -11.5t-5 -10t-8.5 -7.5l-1 -1
q-11 -6 -23 -3t-18 14l-95 164q-3 6 -4 12t0.5 11t5 10t9.5 8v1q6 3 12 3.5t11 -1t10 -5t8 -8.5zM126 545l165 -94q7 -4 11 -11t4 -15t-4 -15v-1q-6 -11 -18 -14t-23 3l-165 95q-10 6 -13.5 18t2.5 22l1 1q6 11 18 14t22 -3zM909 25l-165 95q-10 6 -13.5 18t2.5 23h1
q6 11 18 14t23 -3l164 -95q11 -6 14 -18t-3 -23q-4 -7 -11 -11t-15 -4t-15 4zM293 122l-164 -96q-8 -4 -15.5 -4t-14.5 4t-11 11l-1 1q-6 10 -3 22t14 18l164 96q3 2 5.5 3t5.5 1.5t6 0t5.5 -1t5.5 -2t5 -3t4 -4t4 -4.5v-1q3 -5 4 -11t-0.5 -11.5t-5 -10.5t-8.5 -8zM407 33
l-94 -165q-6 -11 -18 -14t-23 3h-1q-7 4 -11 11t-4 14.5t4 15.5l95 165q6 11 18 14t22 -3h1q11 -7 14 -18.5t-3 -22.5zM548 9v-190q-1 -12 -9.5 -20.5t-20.5 -8.5h-1q-13 0 -21.5 8.5t-8.5 21.5l1 190q0 12 8.5 20.5t21.5 8.5h1q21 0 28 -20q1 -5 1 -10zM683 60l93 -166
q6 -11 3 -23t-14 -18h-1q-11 -6 -22.5 -3t-17.5 14l-93 166q-6 11 -3 23t14 18h1q10 6 22 2.5t18 -13.5z" />
    <glyph glyph-name="uniE62A" unicode="&#xe62a;" 
d="M911 322h-788q-14 0 -25.5 7t-18.5 18.5t-7 25.5v151q0 21 15 36t36 15h788q10 0 19.5 -4t16.5 -11t11 -16.5t4 -19.5v-151q0 -21 -15 -36t-36 -15zM123 534q-2 0 -4 -1t-3.5 -2t-2.5 -3t-1 -4v-151q0 -4 3.5 -7t7.5 -3h788q3 0 5 1.5t3.5 4t1.5 4.5v151q0 4 -3 7t-7 3
h-788zM801 -192h-568q-27 0 -49.5 13t-35.5 35.5t-13 48.5v437q0 5 1.5 8.5t4.5 6.5t6.5 4.5t8.5 1.5t9.5 -3t7.5 -7.5t3 -10.5v-437q0 -23 16.5 -40t40.5 -17h568q23 0 40 17t17 40v437q0 6 2.5 10.5t7.5 7.5t10.5 3t10 -3t7.5 -7.5t3 -10.5v-437q0 -26 -13.5 -48.5
t-36 -35.5t-48.5 -13zM516.5 -192q-8.5 0 -14 6t-5.5 14v514q0 5 1.5 8.5t4 6.5t6.5 4.5t8 1.5q5 0 10 -3t7.5 -7.5t2.5 -10.5v-514q0 -8 -6 -14t-14.5 -6zM277 534q-46 25 -60.5 74.5t10 95t74 60.5t95.5 -10q26 -14 50 -39t39.5 -48.5t29 -50.5t18 -38t6.5 -18l-38 -14
q-2 5 -5.5 15t-16 34t-26 45.5t-34.5 44t-43 34.5q-30 16 -63.5 6t-50.5 -40q-8 -16 -9.5 -32.5t3 -32t15 -29t25.5 -21.5zM757 534l-19 36q31 17 41 50.5t-7 64t-50.5 40.5t-64.5 -6q-22 -12 -43 -34.5t-34.5 -44t-25.5 -45.5t-16 -34t-5 -15l-39 14q2 5 5.5 13.5t12.5 28
t21 39.5t27 41.5t35.5 41t42.5 30.5q46 25 95.5 10t74.5 -60q12 -22 14.5 -46.5t-5.5 -48.5q-4 -16 -12.5 -30t-20.5 -25.5t-27 -19.5zM878 65h-722q-9 0 -15 6t-6 14.5t6 14.5t15 6h722q9 0 15 -6t6 -15q0 -5 -3 -10t-7.5 -7.5t-10.5 -2.5z" />
    <glyph glyph-name="uniE62B" unicode="&#xe62b;" 
d="M512 798q-104 0 -198.5 -40t-163 -108.5t-108.5 -163t-40 -198.5t40 -198.5t108.5 -163t163 -108.5t198.5 -40t198.5 40t163 108.5t108.5 163t40 198.5q0 83 -25.5 161t-72.5 141t-110 110t-141 72.5t-161 25.5zM200 -20q1 68 29 127.5t76.5 102.5t109.5 63
q-49 26 -79 75t-30 107q0 56 27.5 103.5t75 75t103.5 27.5q85 0 145.5 -60.5t60.5 -145.5q0 -58 -30 -107t-79 -75q93 -31 153 -111t62 -182h-624z" />
    <glyph glyph-name="uniE62C" unicode="&#xe62c;" horiz-adv-x="1026" 
d="M954 800h-882q-30 0 -51 -21t-21 -51v-880q0 -20 9.5 -36.5t26 -26t36.5 -9.5h882q30 0 51 21t21 51v880q0 9 -2 17t-5.5 15t-8.5 13t-11.5 11t-13.5 8.5t-15 5.5t-16 2zM62 715q0 8 6.5 14.5t14.5 6.5h859q9 0 15 -6.5t6 -14.5v-321l-257 -126l-6 -3q-4 -2 -15 -6.5
t-22.5 -8.5t-29 -8.5t-33.5 -6.5q-111 -18 -170 49q-29 33 -70 44.5t-80 7t-84 -20t-75 -31t-59 -33.5v464zM963 -139q0 -8 -6 -14.5t-15 -6.5h-859q-8 0 -14.5 6.5t-6.5 14.5v327q64 44 133 71q63 25 111 25q27 0 48 -8.5t36 -26.5q63 -70 167 -70q26 0 53 4q66 10 120 38
l233 114v-474z" />
    <glyph glyph-name="uniE62D" unicode="&#xe62d;" 
d="M907 -224h-790q-32 0 -59 15.5t-42.5 42.5t-15.5 59v790q0 48 34.5 82.5t82.5 34.5h790q32 0 59 -15.5t42.5 -42.5t15.5 -59v-790q0 -48 -34.5 -82.5t-82.5 -34.5zM117 747q-27 0 -45.5 -18.5t-18.5 -45.5v-790q0 -26 18.5 -45t45.5 -19h790q26 0 45 19t19 45v790
q0 27 -19 45.5t-45 18.5h-790z" />
    <glyph glyph-name="uniE62E" unicode="&#xe62e;" 
d="M826 474l-52 46l-327 -366l-203 181l-46 -52l254 -227l46 51zM907 -224h-790q-32 0 -59 15.5t-42.5 42.5t-15.5 59v790q0 48 34.5 82.5t82.5 34.5h790q32 0 59 -15.5t42.5 -42.5t15.5 -59v-790q0 -48 -34.5 -82.5t-82.5 -34.5zM117 747q-27 0 -45.5 -18.5t-18.5 -45.5
v-790q0 -26 18.5 -45t45.5 -19h790q26 0 45 19t19 45v790q0 27 -19 45.5t-45 18.5h-790z" />
    <glyph glyph-name="uniE62F" unicode="&#xe62f;" 
d="M512 157q-12 0 -22 -6t-16 -16t-6 -22q0 -18 13 -30.5t31 -12.5t31 12.5t13 30.5q0 6 -2 12t-4.5 10.5t-6.5 8.5t-9 7t-10.5 4.5t-11.5 1.5zM512 768q-98 0 -186.5 -38t-153 -102.5t-102.5 -153t-38 -186.5q0 -78 24 -151.5t68.5 -132.5t103.5 -103.5t132.5 -68.5
t151.5 -24q98 0 186.5 38t153 102.5t102.5 153t38 186.5t-38 186.5t-102.5 153t-153 102.5t-186.5 38zM512 -148q-89 0 -169.5 34.5t-139 93t-93 139t-34.5 169.5t34.5 169.5t93 139t139 93t169.5 34.5t169.5 -34.5t139 -93t93 -139t34.5 -169.5t-34.5 -169.5t-93 -139
t-139 -93t-169.5 -34.5zM556 506h-88q-3 0 -5.5 -0.5t-5 -2t-4.5 -3.5t-3.5 -4.5t-2 -5.5t-0.5 -6v-1l21 -262h1q0 -4 2 -8t4.5 -6.5t6.5 -4t8 -1.5h44q5 0 10 2.5t8 7t3 10.5h1l21 262v1q0 9 -6 15.5t-15 6.5v0z" />
    <glyph glyph-name="uniE630" unicode="&#xe630;" horiz-adv-x="1161" 
d="M984 584q0 2 1 4l2 2q1 2 2 3q16 39 7.5 74.5t-40.5 60.5q-49 38 -113 30q-96 -11 -215 -125l-10 -10q-5 -5 -10 -9.5t-9.5 -9.5t-9 -9.5t-8 -8.5t-7.5 -9q-13 14 -26.5 28t-27.5 28q-120 114 -216 125q-31 4 -60 -3.5t-53 -26.5q-32 -25 -40.5 -60.5t8.5 -74.5
q2 -5 5 -9h-98v-285h84v-442h847v442h84v285h-97zM239 679q24 19 56 15q50 -6 88 -32t86 -78h-162q-41 0 -56 6.5t-24 26.5q-2 5 -3.5 10t-2 12t0.5 13.5t5.5 13.5t11.5 13zM521 -69h-291v368h291v-368zM521 392h-355v100h355v-100zM852 694q17 2 30.5 -1.5t25.5 -13.5
q12 -9 16 -22t2.5 -22t-5.5 -18q-6 -13 -16.5 -20t-25 -10t-39.5 -3h-163q31 34 55.5 55t55 36t64.5 19zM917 -69h-290v368h290v-368zM982 392h-355v100h355v-100z" />
    <glyph glyph-name="uniE631" unicode="&#xe631;" 
d="M428 76v144q14 -1 38 -3.5t93.5 -17.5t133 -37.5t140 -66.5t129.5 -101q-56 246 -307 371q-117 58 -227 73v143l-366 -252zM428 76z" />
    <glyph glyph-name="uniE632" unicode="&#xe632;" 
d="M512 -181q-95 0 -183 37.5t-151.5 100.5t-101.5 151t-38 185q0 96 37 183.5t100.5 151.5t151.5 102t185 38q95 0 183 -37.5t151.5 -100.5t101.5 -151.5t38 -185.5q-1 -78 -26 -150.5t-69 -130.5t-102 -101.5t-129.5 -67.5t-147.5 -24zM512 735q-89 0 -171 -35t-141 -94.5
t-94.5 -141t-35.5 -171t35.5 -171t94.5 -141t141 -95t171 -35.5t171 35.5t141 95t94.5 141t35.5 171t-35.5 171t-94.5 141t-141 94.5t-171 35z" />
    <glyph glyph-name="uniE633" unicode="&#xe633;" 
d="M512 768q-199 0 -339.5 -140.5t-140.5 -339.5t140.5 -339.5t339.5 -140.5t339.5 140.5t140.5 339.5t-140.5 339.5t-339.5 140.5zM800 412l-305 -310v0q-8 -9 -19.5 -9t-19.5 9l-187 192q-8 8 -8 19.5t8 19.5q18 18 37 3l3 -3l169 -175l282 294q4 3 8 5t8 3t8.5 0t8.5 -3
t7 -5q5 -6 7.5 -14t0 -15.5t-7.5 -10.5z" />
    <glyph glyph-name="uniE634" unicode="&#xe634;" horiz-adv-x="1025" 
d="M1025 -30q-3 -1 -6.5 -1.5t-16 -3t-26 -5.5t-32.5 -6.5t-38 -7.5t-41.5 -8.5t-43.5 -9.5l-137 -152l-147 250q-24 -1 -25 -1l-25 1l-146 -250q-69 76 -137 152q-29 6 -60.5 12.5t-56 11.5t-45 9t-31.5 6l-11 3l160 272q-20 40 -30.5 82.5t-10.5 88.5q0 105 52.5 194
t143 141t197.5 52q54 0 105 -14t94 -39t79.5 -60.5t61.5 -78t39.5 -93t14.5 -102.5q0 -89 -41 -171zM692 -108q49 47 95 92l132 37l-93 159q-41 -53 -97 -90t-122 -53zM106 21q66 -19 132 -37q20 -20 44 -43t37 -36l14 -13l85 145q-135 33 -219 143zM512 736
q-87 0 -160.5 -42.5t-116 -116.5t-42.5 -161t42.5 -161t116 -116.5t160.5 -42.5t160.5 42.5t116.5 116.5t43 161t-43 161t-116.5 116.5t-160.5 42.5zM512 192q-61 0 -112.5 30t-81.5 81.5t-30 112.5q0 93 65.5 158.5t158.5 65.5t158.5 -65.5t65.5 -158.5t-65.5 -158.5
t-158.5 -65.5zM512 576q-66 0 -113 -47t-47 -113q0 -44 21.5 -80.5t58.5 -58t80 -21.5q66 0 113 47t47 113q0 33 -12.5 62.5t-34 51t-51 34t-62.5 12.5z" />
    <glyph glyph-name="uniE635" unicode="&#xe635;" 
d="M815 107q-74 76 -172 108q72 38 115 109.5t43 156.5q0 124 -85.5 211.5t-205.5 87.5q-48 0 -92.5 -15t-80.5 -43t-63 -64.5t-41.5 -82t-14.5 -94.5q0 -85 43 -156.5t115 -109.5q-98 -32 -171 -108q-61 -62 -94 -143t-33 -169h52q0 77 29 148t82 126q103 105 247 114
q11 -1 22 -1h7h7q4 0 8 1q144 -9 246 -114q54 -55 82.5 -126t28.5 -148h52q0 58 -14.5 114t-43 106.5t-68.5 91.5v0zM270 481q0 67 32 123.5t87.5 89.5t120.5 33q28 0 54.5 -6.5t50.5 -18.5t44.5 -29t37 -38.5t28.5 -45.5t18.5 -51.5t6.5 -56.5q0 -96 -63.5 -166.5
t-155.5 -78.5h-7q-4 0 -7.5 0.5t-6.5 0.5q-11 0 -22 -1q-92 8 -155 78.5t-63 166.5v0z" />
    <glyph glyph-name="uniE636" unicode="&#xe636;" horiz-adv-x="1085" 
d="M1020 172q-6 0 -11.5 2.5t-9.5 7.5l-424 508q-5 6 -10.5 10t-12 6t-12.5 2q-10 0 -19 -4.5t-16 -13.5l-424 -508q-7 -9 -19 -10t-20.5 7.5t-9.5 21t7 21.5l423 508q32 38 78 38q45 0 77 -38l424 -508q5 -6 6.5 -14t-0.5 -15.5t-8 -13.5q-3 -2 -6 -3.5t-6.5 -2.5t-6.5 -1
v0zM878 229v-300q0 -25 -16.5 -42.5t-39.5 -17.5h-113v240q0 50 -33 85t-80 35h-113q-46 0 -79.5 -35t-33.5 -85v-240h-112q-12 0 -22.5 4.5t-18 12.5t-12 19t-4.5 24v300h-56v-300q0 -50 33 -85.5t80 -35.5h169v301q0 16 7.5 30t20.5 22t28 8h113q7 0 13 -1.5t11.5 -4.5
t10.5 -7t9 -9.5t7 -11.5t4.5 -12.5t1.5 -13.5v-301h169q46 0 79.5 35.5t33.5 85.5v300h-57z" />
    <glyph glyph-name="uniE637" unicode="&#xe637;" 
d="M902 588h-40q29 46 25 86q-1 8 -3.5 17t-7.5 19t-14.5 20t-22.5 18q-47 31 -113 14q-37 -9 -76.5 -32t-75 -55.5t-62.5 -69.5q-41 56 -100 99.5t-114 57.5q-66 17 -113 -14q-44 -29 -48 -74q-4 -40 25 -86h-40q-24 0 -45 -12t-33 -33t-12 -45v-120q0 -31 19 -55t48 -31
q-2 -6 -3.5 -11t-2.5 -11t-1 -12v-360q0 -37 26.5 -63.5t63.5 -26.5h330v0h330q24 0 45 12t33 33t12 45v360q0 5 -0.5 9t-1.5 8.5t-2 8.5t-3 8q19 5 34.5 17.5t24 30.5t8.5 38v120q0 18 -7 35t-19 29t-29 19t-35 7v0zM740 704q41 10 66 -6q20 -13 21 -30q2 -19 -12.5 -42.5
t-28.5 -37.5h-211q23 28 51 51.5t58 40.5t56 24v0zM197 668q0 3 1 6t3 7t6.5 8.5t10.5 8.5q25 16 66 6q39 -10 84.5 -42t80.5 -74h-211q-14 14 -28.5 37.5t-12.5 42.5v0zM92 498q0 8 4 15t11 11t15 4h360v-180h-360q-8 0 -15 4t-11 11t-4 15v120zM152 -102v360q0 13 9 21.5
t21 8.5h300v-420h-300q-12 0 -21 9t-9 21v0zM872 -102q0 -8 -4 -15t-11 -11t-15 -4h-300v420h300q12 0 21 -8.5t9 -21.5v-360zM932 378q0 -12 -9 -21t-21 -9h-360v180h360q3 0 6 -0.5t5.5 -1.5t5 -3t4.5 -4t3 -5l4 -4q1 -3 1.5 -6t0.5 -6v-120z" />
    <glyph glyph-name="uniE638" unicode="&#xe638;" 
d="M919 346q0 29 -14.5 54.5t-41.5 46.5q1 1 1 3q1 3 1 4h2v133v2q0 45 -34 81.5t-90 60t-124.5 36t-140.5 12.5q-98 0 -184.5 -21t-145.5 -65.5t-59 -103.5v-2v-133h2q2 -9 5 -18t8 -17.5t11 -16t13.5 -15t16.5 -14.5q-4 -15 -4 -27v-2v-1v-134h2q0 -1 1 -4l1 -2
q-56 -45 -56 -102v-1v-2v-133h2q4 -22 15.5 -41.5t29 -35t40.5 -29t50 -23.5t57 -17.5t62.5 -12.5t65.5 -7.5t67 -2.5q69 0 133 10.5t119 30t91.5 52.5t43.5 76h2v133v2v1q0 6 -0.5 12.5t-2.5 12.5q45 37 53 83h2v134v1v2v0zM478 733q61 0 117 -8.5t98.5 -23t74.5 -33
t48.5 -39.5t16.5 -42q0 -26 -26.5 -52t-72 -46.5t-113 -34t-143 -13.5t-143.5 13.5t-113.5 34t-72 46.5t-26.5 52q0 18 12 35.5t33.5 33.5t54 30t71 24.5t86 16.5t98.5 6zM833 505v-32q0 -13 -4.5 -25.5t-13.5 -23.5v65q10 8 18 16zM781 465v-73q-4 -3 -8.5 -5.5t-8.5 -5.5
v74q4 3 8.5 5t8.5 5zM729 440v-75q-15 -6 -35 -12v75q19 5 35 12v0zM660 418v-73q-13 -3 -27.5 -5.5t-29 -4.5t-30.5 -3v71q46 5 87 15v0zM539 399v-70q-8 0 -15 -0.5t-15 -1t-15 -0.5h-16h-2h-4h-3v70h5h4q30 0 61 2zM435 398v-70q-18 1 -35.5 2t-33.5 3v72q17 -3 34 -4.5
t35 -2.5v0zM331 411v-73q-15 2 -35 7v73l6 -2h6q3 -1 5.5 -1.5t5.5 -1.5t6 -1.5t6 -0.5v0zM262 428v-75q-20 6 -35 12v75q16 -7 35 -12v0zM175 392v73q2 -2 4.5 -3t4.5 -2t4 -2.5t5 -2.5v-74q-10 5 -18 11zM141 424q-18 23 -18 49v32q4 -4 8.5 -8t9.5 -8v-65zM175 264l6 -6
l5 -6q3 -2 7 -5v-65q-18 23 -18 50v32zM141 -63q-18 24 -18 50v32q8 -9 18 -16v-66zM193 -105q-5 2 -9.5 5t-8.5 5v73q9 -5 18 -9v-74zM262 -133q-19 6 -35 12v75q16 -7 35 -13v-74zM331 -148l-12 2q-6 1 -11.5 2t-11.5 2v74q18 -4 35 -8v-72zM435 -158q-12 0 -24 1t-23 2
l-22 2v72q33 -5 69 -7v-70zM539 -157q-11 -1 -20.5 -1.5t-20.5 -0.5h-20h-2h-4h-3v70h3h4h2q15 0 30 0.5t31 1.5v-70zM660 -142q-13 -2 -27.5 -4.5t-29 -4.5t-30.5 -4v71q45 6 87 16v-74zM729 -121q-16 -6 -35 -12v74q19 6 35 13v-75zM781 -95q-4 -2 -8.5 -4.5t-8.5 -5.5v74
q8 4 17 9v-73zM833 -13q0 -9 -2 -17.5t-6 -16.5t-10 -16v66q10 7 18 16v-32zM833 101q0 -26 -26.5 -52t-72 -47t-113 -34t-143.5 -13t-143.5 13t-113 34t-72 47t-26.5 52q0 31 39 63q56 -87 242 -114q61 -9 126 -9q192 0 303 64v-2v-2v0zM227 150v73q9 -5 18 -9v-75
q-10 6 -18 11zM279 123v75q16 -6 35 -12v-74q-10 3 -18.5 5.5t-16.5 5.5v0zM348 103v74q18 -5 35 -8v-73q-5 1 -9 2t-8.5 1.5t-8.5 1.5t-9 2v0zM418 92v71q11 -1 22.5 -2.5t23 -2.5t23.5 -1v-71q-37 2 -69 6v0zM521 86v69h5h4q30 0 61 3v-71q-34 -1 -61 -1h-5h-4v0zM625 90
v71q45 5 87 16v-74q-10 -2 -20.5 -4t-21.5 -3l-22 -4q-11 -1 -23 -2zM746 112v74l18 6q9 3 17 6v-75q-16 -6 -35 -11v0zM833 150q-4 -3 -8.5 -5.5t-9.5 -5.5v75q9 4 18 9v-73zM885 232q0 -14 -4.5 -26t-13.5 -24v65q10 8 18 17v-32zM530 200q-76 0 -143.5 13t-113 34t-72 47
t-26.5 52q0 2 1 6q37 -22 87 -37t104.5 -22t110.5 -7q58 0 114 8t105.5 23t88.5 38.5t60 53.5q39 -31 39 -63q0 -26 -26.5 -52t-72 -47t-113 -34t-143.5 -13v0z" />
    <glyph glyph-name="uniE639" unicode="&#xe639;" 
d="M860 511h-103v7q0 53 -19.5 101t-52.5 83t-78.5 56t-95.5 21q-101 0 -173.5 -76.5t-72.5 -184.5v-7h-102l-61 -711h818zM511 747q66 0 120.5 -39t78.5 -102q-16 25 -37.5 46t-46.5 36t-54.5 23t-60.5 8q-61 0 -113.5 -30.5t-85.5 -83.5q25 63 79 102.5t120 39.5v0z
M311 511q15 74 71 123t129 49q48 0 90.5 -22.5t71.5 -61.5t39 -88h-401z" />
    <glyph glyph-name="uniE63A" unicode="&#xe63a;" 
d="M506 498q56 0 113.5 17t140.5 67q107 66 204 148q-11 14 -24 23.5t-29.5 14t-37.5 4.5h-747q-60 0 -92 -42q88 -70 141 -106q95 -73 165 -99.5t166 -26.5v0zM992 660q-115 -96 -218 -155q-121 -71 -275 -71q-58 0 -103.5 7t-102.5 29t-118 63q-32 24 -71 53t-64 48.5
t-34 25.5v-761q0 -31 15.5 -57t43 -41t61.5 -15h754q31 0 58.5 15t44 43t16.5 62zM682 139q0 -6 -4 -10.5t-10 -4.5h-141v-63h141q6 0 10 -4.5t4 -9.5v-28q0 -5 -4 -9.5t-10 -4.5h-141v-78q0 -5 -4 -9.5t-10 -4.5h-28q-5 0 -9.5 4.5t-4.5 9.5v71h-141q-3 0 -6.5 2t-5.5 5
t-2 7v28q0 5 4.5 9.5t9.5 4.5h141v63h-141q-2 0 -4.5 1.5t-4.5 3.5t-3.5 4.5t-1.5 4.5v36q0 5 4.5 9.5t9.5 4.5h78l-85 141q-3 7 -1.5 10.5t8.5 10.5l28 14q7 7 22 -7l98 -169h56l92 169q7 7 21 7l28 -14q7 -7 7 -21l-84 -141h70q6 0 10 -4.5t4 -9.5v-28z" />
    <glyph glyph-name="uniE63B" unicode="&#xe63b;" horiz-adv-x="1536" 
d="M148 665q-14 -19 -14 -61v-168q0 -8 2 -14.5t6 -9.5q8 -8 24 -11q4 0 8 -1.5t8.5 -3.5t8.5 -4.5t7 -5.5l8 -8q10 -11 14.5 -25t4.5 -32q0 -24 -8 -40l-2 -4l-2 -4l-2 -4q-1 -2 -2 -3.5t-2.5 -3t-2.5 -3t-2 -3.5l-3 -2q-10 -10 -21 -15q-5 -3 -9.5 -4t-7.5 -1
q-16 -3 -21.5 -12t-5.5 -26v-227q0 -44 17 -60q8 -8 22.5 -12t34.5 -3h5h6h7h8h8h11q29 -1 66 -1h82v790h-193q-47 0 -60 -18zM1293 248q13 7 19 19q6 13 5 27q-1 7 -3 13.5t-6 13.5q-3 6 -9 10.5t-13 8.5q-16 6 -25 20q-8 15 -8 29q1 14 11 28q10 13 28 18q7 2 13 6t9 10
q7 13 6 26q-1 12 -9 26q-2 3 -4.5 5.5t-5.5 5t-6 4.5l-6 4q-6 2 -11 4.5t-8.5 6t-6.5 8.5q-7 12 -6 26q2 14 10 24q8 11 22 16q3 1 6 2.5t5.5 4t4.5 5t3 5.5q7 13 6 25q0 5 -1 9t-2.5 7.5t-4.5 6.5q-3 6 -8 8.5t-11 2.5h-799v-790h790q13 0 19 10q2 3 4 7t3 7.5t2 8.5
q0 6 -1 12.5t-3 13.5q-6 13 -18 20q-9 4 -15.5 10t-10.5 13q-9 15 -8 29t11 26q5 7 12 11t16 7q14 5 19 17q2 4 3.5 8t2 8.5t0.5 9.5q-1 16 -9 29q-4 7 -9.5 11.5t-12.5 7.5q-30 17 -29 43q1 14 11 25.5t28 20.5v0zM1087 151q0 -12 -6 -23t-16 -17t-21 -6h-280q-11 0 -21 6
t-15.5 17t-5.5 23q0 19 12.5 33t29.5 14h280q11 0 21 -6.5t16 -17t6 -23.5zM1087 403q0 -9 -3.5 -18t-9.5 -15t-14 -9.5t-16 -3.5h-280q-8 0 -16 3.5t-14 9.5t-9 15t-3 18q0 19 12.5 33t29.5 14h280q17 0 30 -14t13 -33z" />
    <glyph glyph-name="uniE63C" unicode="&#xe63c;" horiz-adv-x="1132" 
d="M832 426h-526q-118 0 -201.5 -91t-83.5 -220t83.5 -220.5t201.5 -91.5h526q118 0 201.5 91.5t83.5 220.5t-83.5 220t-201.5 91zM400 73h-63v-62q0 -17 -12 -29.5t-29.5 -12.5t-30 12.5t-12.5 29.5v62h-63q-18 0 -30 12t-12 29.5t12 29.5t30 12h63v62q0 18 12.5 30
t29.5 12q12 0 21.5 -5.5t15 -15t5.5 -21.5v-62h63q12 0 21.5 -5.5t15.5 -15t6 -20.5q0 -9 -3.5 -16.5t-9 -13t-13.5 -9t-17 -3.5zM737 73q-17 0 -29.5 12t-12.5 29.5t12.5 29.5t30 12t30 -12t12.5 -29q0 -12 -6 -21.5t-15.5 -15t-21.5 -5.5zM843 -31q-18 0 -30 12.5
t-12 29.5t12 29t29.5 12t30 -12t12.5 -29t-12.5 -29.5t-29.5 -12.5zM843 177q-18 0 -30 12t-12 29.5t12 29.5t29.5 12t30 -12t12.5 -29.5t-12.5 -29.5t-29.5 -12zM948 73q-17 0 -29.5 12t-12.5 29.5t12.5 29.5t30 12t29.5 -12t12 -29q0 -12 -5.5 -21.5t-15 -15t-21.5 -5.5z
M864 738v62h-84v-47q0 -34 -14 -52t-36.5 -22.5t-49.5 -4.5t-54 -2.5t-49 -11.5t-36 -36.5t-14 -72.5v-63h84q-2 23 0.5 41t7 29.5t14 19.5t17.5 11.5t23 5.5t23.5 2.5t26.5 0.5h21q7 0 19.5 0.5t20 2.5t18.5 5t17 8.5t14.5 13t13 18t9 23.5t6.5 30.5t2 38.5z" />
    <glyph glyph-name="uniE63D" unicode="&#xe63d;" 
d="M505 578l-15 13l-357 -315q-7 -5 -7 -13t7 -13q1 -2 3 -3t4 -1l6 -2q2 0 4 0.5t4.5 1t4.5 1.5t4 3l306 269v-624q0 -8 6 -13.5t15 -5.5t15 5.5t6 13.5v624l306 -269q6 -6 15 -6q4 0 8 1.5t7 4.5q7 5 7 13t-7 13zM849 738h-718q-9 0 -15.5 -5.5t-6.5 -13t6.5 -13
t15.5 -5.5h718q6 0 11 2.5t7.5 6.5t2.5 9q0 3 -1 6t-3 5.5t-4.5 4t-5.5 2.5t-7 1z" />
  </font>
</defs>
</svg>
